<svg viewBox="0 0 1216.08 189.12" height="189.12" width="1216.08" xmlns="http://www.w3.org/2000/svg">
  <path transform="translate(0.24 209.52)" d="M98.64-25.2-.24-207.84l36.96.24L113.28-62.4l77.28-145.2h4.8Zm161.28-2.16h111.6v3.6h-144V-206.4h144v3.6H259.92v86.16h93.84v3.36H259.92Zm182.64-.24h111.6V-24h-144V-206.64h32.4Zm199.92,7.2q-34.8-.48-58.92-14.76t-36.72-36q-12.6-21.72-12.6-43.8,0-22.8,12.72-44.52t37.32-35.64q24.6-13.92,60.12-14.4,24.96.24,44.16,9a99.561,99.561,0,0,1,32.28,22.92,101.285,101.285,0,0,1,19.8,30.72q6.72,16.56,6.72,31.92,0,15.6-6.84,32.28a96.747,96.747,0,0,1-20.28,30.6,103.176,103.176,0,0,1-33,22.56Q667.68-20.88,642.48-20.4Zm.72-3.12q15.12,0,26.4-6.12a60.736,60.736,0,0,0,19.2-16.32,93.628,93.628,0,0,0,12.84-22.32,125.5,125.5,0,0,0,7.2-24.48,125.785,125.785,0,0,0,2.28-22.68,119.948,119.948,0,0,0-14.64-57.84q-17.52-33.12-52.32-33.36-38.4.72-57.6,33.36a112.421,112.421,0,0,0-15.84,58.08q0,15.36,6.72,35.52,7.68,23.52,22.8,38.4A58.521,58.521,0,0,0,643.2-23.52Zm235.2,0q-84,0-85.92-58.56V-207.6l32.16-.24V-81.12a101.135,101.135,0,0,0,4.56,26.04q3.84,11.88,15.12,19.44t34.08,8.52A91.121,91.121,0,0,0,910.32-33a75.91,75.91,0,0,0,26.76-16.44Q948-60,949.68-73.68V-207.84H954v134.4q-.96,14.64-12.72,25.8T912.12-30A96.37,96.37,0,0,1,878.4-23.52Zm247.44-93.36a31.608,31.608,0,0,0,20.88-9.48,51.636,51.636,0,0,0,12.96-21.96,53.279,53.279,0,0,0,3.12-17.76,97.61,97.61,0,0,0-1.2-12.48q-1.2-8.4-10.2-17.04t-27-8.64l-24.96.24-41.04-.48-.48,87.6Zm-29.52,3.6h-38.4l.48,89.76h-32.64V-207.84q44.16,0,58.56-.24h40.8q30,.48,47.76,9.6,26.64,13.68,26.64,36.24,0,6.96-4.56,17.52t-22.32,20.4q-15.6,8.4-40.08,10.56l83.28,90.24h-34.32Z" data-name="Path 3" id="Path_3"></path>
</svg>
